<svg width="30" height="30" viewBox="0 0 30 30" fill="none" xmlns="http://www.w3.org/2000/svg">
<path d="M15 30C23.2842 30 30 23.2842 30 15C30 6.71572 23.2842 0 15 0C6.71572 0 0 6.71572 0 15C0 23.2842 6.71572 30 15 30Z" fill="#1977F3"/>
<path d="M20.8386 19.337L21.5031 15.0001H17.3434V12.1861C17.3434 11.0006 17.9234 9.84258 19.7882 9.84258H21.6803V6.15112C21.6803 6.15112 19.9632 5.85791 18.3221 5.85791C14.8964 5.85791 12.6563 7.93357 12.6563 11.6946V15.0001H8.84668V19.337H12.6563V29.8187C13.4199 29.9389 14.2025 30.0001 14.9998 30.0001C15.7972 30.0001 16.5798 29.9368 17.3434 29.8187V19.337H20.8386Z" fill="white"/>
</svg>
