<svg width="213" height="172" viewBox="0 0 213 172" fill="none" xmlns="http://www.w3.org/2000/svg">
<g clip-path="url(#clip0_43_6029)">
<path d="M121.342 152.164C119.869 150.099 117.875 148.587 115.369 148.022C113.183 147.528 110.936 147.612 108.714 147.63L80.6198 147.847C78.2137 147.865 75.9068 149.953 76.0186 152.455C76.1295 154.936 78.0407 157.083 80.6198 157.063C88.8494 157 97.0789 156.936 105.308 156.873C107.249 156.858 109.19 156.823 111.13 156.829C111.566 156.83 112 156.853 112.435 156.858C112.54 156.86 112.617 156.859 112.67 156.856C112.684 156.86 112.695 156.864 112.713 156.869C112.94 156.932 113.173 156.975 113.401 157.034C113.321 157.036 113.549 157.179 113.664 157.227C113.68 157.258 113.713 157.313 113.769 157.399C113.847 157.545 114.079 157.991 114.089 157.977C114.436 158.858 114.723 159.762 114.948 160.683C115.482 162.713 115.6 163.137 115.677 165.041C115.774 167.447 117.723 169.764 120.278 169.65C122.687 169.541 124.983 167.621 124.879 165.041C124.703 160.694 123.941 155.81 121.342 152.164Z" fill="#1C1B1F" fill-opacity="0.12"/>
<path d="M82.2712 162.564C81.7435 159.361 81.2259 156.156 80.688 152.955C80.1422 149.708 79.0274 146.735 76.5044 144.603C75.8302 144.034 75.1312 143.502 74.4293 142.972C74.1824 142.786 73.936 142.599 73.6921 142.409C73.6775 142.398 73.6682 142.391 73.6556 142.381C73.6288 142.358 73.5966 142.33 73.5534 142.293C72.5018 141.402 71.4857 140.471 70.5178 139.481C69.6583 138.603 68.8364 137.686 68.0519 136.732C67.8559 136.494 67.6624 136.254 67.4715 136.011C67.4386 135.969 67.2617 135.74 67.1451 135.591C67.0367 135.441 66.8386 135.171 66.8053 135.124C66.5822 134.808 66.363 134.489 66.1479 134.167C64.6824 131.968 63.4134 129.644 62.3556 127.222C62.2507 126.981 62.1483 126.74 62.0484 126.497C62.0216 126.422 61.9869 126.327 61.9408 126.2C61.7277 125.613 61.5149 125.027 61.32 124.433C60.906 123.171 60.5499 121.891 60.252 120.592C60.1047 119.95 59.9721 119.306 59.8542 118.658C59.7934 118.324 59.7366 117.991 59.6836 117.656C59.6749 117.6 59.6232 117.239 59.5928 117.035C59.5703 116.831 59.5285 116.468 59.5228 116.412C59.4891 116.074 59.4592 115.737 59.4331 115.399C59.3743 114.638 59.3345 113.877 59.3138 113.114C59.2784 111.758 59.3026 110.402 59.3865 109.046C59.4343 108.285 59.5022 107.525 59.5859 106.767C59.591 106.72 59.5949 106.683 59.5985 106.65C59.6036 106.616 59.6095 106.577 59.6165 106.529C59.6784 106.11 59.7436 105.692 59.8165 105.275C60.0925 103.691 60.4514 102.122 60.8918 100.576C61.1003 99.8446 61.3268 99.1193 61.5713 98.3998C61.6802 98.0805 61.7927 97.7623 61.9086 97.4454C61.901 97.4658 62.2485 96.5768 62.2531 96.5469C63.632 93.2839 65.8874 90.3092 65.8905 86.6025C65.8926 84.0929 63.7727 81.6888 61.2893 81.8048C60.0511 81.8515 58.8794 82.3778 58.0211 83.2728C57.1627 84.1678 56.6848 85.3615 56.6881 86.6025C56.6881 86.6589 56.6878 86.707 56.6877 86.7536C56.6645 86.8318 56.6451 86.8969 56.6277 86.9546C56.3588 87.5399 56.0294 88.096 55.7343 88.6667C54.926 90.2288 54.2361 91.8421 53.5808 93.4791C52.508 96.1449 51.6868 98.9055 51.128 101.725C49.9134 107.902 49.8191 114.247 50.8497 120.458C52.6337 131.349 58.5169 141.774 66.6959 148.782C67.4058 149.39 68.1328 149.977 68.8668 150.553C69.1705 150.792 69.4768 151.025 69.7846 151.258C69.93 151.368 70.5327 151.844 70.2676 151.613C70.8377 152.1 71.0777 152.345 71.2241 152.704C71.2453 152.787 71.2743 152.9 71.3134 153.053C71.4166 153.458 71.5147 153.862 71.5961 154.272C72.308 157.859 72.8028 161.505 73.3975 165.114C73.8063 167.594 76.8547 169.209 79.0576 168.465C81.6216 167.6 82.7092 165.221 82.2712 162.564Z" fill="#1C1B1F" fill-opacity="0.12"/>
<path d="M121.808 171.865C119.875 171.87 118.02 171.108 116.648 169.744C115.277 168.381 114.501 166.528 114.492 164.593V159.336C108.997 159.952 90.1793 159.809 84.7853 158.941V164.383C84.7709 166.316 83.9937 168.166 82.6233 169.528C81.2528 170.891 79.4002 171.655 77.4694 171.655C75.5385 171.655 73.6859 170.891 72.3155 169.528C70.945 168.166 70.1679 166.316 70.1534 164.383V153.699C62.8478 149.634 56.7575 143.691 52.5111 136.481C48.2646 129.272 46.016 121.059 45.9971 112.688C45.9971 98.336 52.4914 84.9475 63.8149 75.9556C71.1773 70.0894 80.1226 66.5615 89.5018 65.8249C90.7749 65.7249 92.0557 65.6743 93.309 65.6743C97.7239 65.6743 117.643 66.3574 122.641 67.7975L134.037 56.4719C134.205 56.3032 134.419 56.1882 134.652 56.1417C134.885 56.0952 135.126 56.1192 135.346 56.2108C135.567 56.2988 135.756 56.4518 135.888 56.6495C136.021 56.8472 136.091 57.0805 136.089 57.3187V59.1194L138.308 56.9183C138.475 56.7494 138.689 56.6343 138.922 56.5877C139.155 56.5411 139.396 56.5651 139.615 56.6567C139.836 56.7448 140.026 56.8977 140.159 57.0955C140.291 57.2933 140.361 57.5267 140.359 57.7651V77.8877C146.078 83.0509 150.436 89.5472 153.048 96.8008C155.66 104.054 156.446 111.841 155.334 119.472C154.223 127.102 151.25 134.34 146.678 140.544C142.106 146.748 136.076 151.727 129.124 155.039V164.593C129.114 166.528 128.339 168.381 126.967 169.744C125.596 171.108 123.74 171.87 121.808 171.865ZM115.067 158.683V164.593C115.081 166.374 115.798 168.077 117.061 169.331C118.323 170.585 120.029 171.289 121.808 171.289C123.586 171.289 125.292 170.585 126.555 169.331C127.817 168.077 128.534 166.374 128.548 164.593V154.675L128.713 154.597C136.514 150.89 143.137 145.089 147.845 137.84C153.845 128.589 156.341 117.492 154.88 106.558C153.419 95.6244 148.098 85.5755 139.88 78.2306L139.784 78.1446V57.7651C139.786 57.6413 139.75 57.5198 139.681 57.417C139.612 57.3142 139.514 57.2351 139.398 57.1903C139.284 57.1412 139.157 57.128 139.035 57.1523C138.913 57.1766 138.801 57.2374 138.713 57.3266L135.514 60.5007V57.3187C135.516 57.1949 135.48 57.0734 135.411 56.9706C135.342 56.8679 135.243 56.7887 135.128 56.7439C135.013 56.6949 134.886 56.6818 134.764 56.7063C134.641 56.7308 134.529 56.7918 134.442 56.8812L122.802 68.4492L122.636 68.3973C117.99 66.9409 97.7574 66.2504 93.3089 66.2504C92.0707 66.2504 90.8049 66.3004 89.547 66.3993C80.2817 67.1268 71.4451 70.6119 64.1723 76.4069C52.9871 85.289 46.5722 98.513 46.5722 112.688C46.5913 120.984 48.828 129.124 53.0498 136.262C57.2717 143.4 63.3247 149.275 70.5802 153.278L70.7285 153.36V164.383C70.7434 166.163 71.4601 167.866 72.7226 169.12C73.9852 170.374 75.6913 171.078 77.4694 171.078C79.2475 171.078 80.9536 170.374 82.2161 169.12C83.4786 167.866 84.1954 166.163 84.2102 164.383V158.252L84.5509 158.316C89.3982 159.229 109.809 159.373 114.742 158.725L115.067 158.683Z" fill="#49454F"/>
<path d="M82.8209 34.3086L50.9748 43.894C49.9618 44.2001 49.1117 44.8964 48.611 45.8299C48.1103 46.7634 48.0002 47.8578 48.3046 48.8726C48.6091 49.8875 49.3034 50.7397 50.2349 51.2422C51.1664 51.7447 52.2589 51.8563 53.2725 51.5525L81.1414 43.1624L81.7252 42.9867C81.8434 39.9736 82.6595 37.0292 84.1092 34.3863C83.9273 34.3044 83.7328 34.2537 83.5341 34.2366C83.2939 34.2133 83.0516 34.2378 82.8209 34.3086Z" fill="#6C63F0"/>
<path d="M52.7217 53.5961C52.299 53.5951 51.8873 53.461 51.5447 53.2128C51.2022 52.9647 50.9462 52.615 50.8129 52.2132L48.8215 46.1947C48.7383 45.9434 48.7054 45.6781 48.7246 45.414C48.7438 45.1499 48.8147 44.8922 48.9334 44.6556C49.052 44.419 49.2161 44.2081 49.4161 44.035C49.6161 43.8619 49.8483 43.7299 50.0992 43.6467L76.0187 35.0434C76.2697 34.9601 76.5345 34.9271 76.7982 34.9463C77.0618 34.9655 77.3191 35.0365 77.5554 35.1553C77.7916 35.2741 78.0022 35.4384 78.175 35.6387C78.3479 35.839 78.4797 36.0714 78.5628 36.3228L80.5542 42.3413C80.7199 42.8363 80.6867 43.3765 80.4616 43.8474C80.2366 44.3183 79.8373 44.683 79.3484 44.8641C79.3245 44.8731 79.3003 44.8816 79.2759 44.8896L53.357 53.4926C53.1521 53.561 52.9376 53.5959 52.7217 53.5961Z" fill="#49454F"/>
<path d="M101.263 23.6201C96.0318 23.6221 91.0065 25.6628 87.251 29.3102C83.4954 32.9576 81.3043 37.9255 81.1414 43.1624C81.1356 43.3669 81.1328 43.5743 81.1328 43.7816C81.1328 47.7692 82.3134 51.6673 84.5254 54.9828C86.7373 58.2984 89.8812 60.8825 93.5596 62.4085C97.2379 63.9345 101.285 64.3338 105.19 63.5558C109.095 62.7779 112.682 60.8577 115.497 58.038C118.313 55.2184 120.23 51.6259 121.007 47.715C121.783 43.804 121.385 39.7502 119.861 36.0661C118.337 32.3821 115.757 29.2333 112.447 27.0179C109.136 24.8025 105.244 23.6201 101.263 23.6201ZM101.263 63.3672C96.0784 63.3618 91.1076 61.2966 87.4415 57.6247C83.7754 53.9529 81.7134 48.9744 81.708 43.7816C81.708 43.5138 81.7137 43.2488 81.7252 42.9867C81.8809 39.1502 83.1592 35.4441 85.4011 32.3294C87.643 29.2147 90.7495 26.8287 94.3345 25.4681C97.9194 24.1075 101.825 23.8323 105.564 24.6768C109.304 25.5213 112.714 27.4482 115.369 30.2179C118.024 32.9876 119.808 36.4779 120.498 40.2548C121.189 44.0317 120.756 47.9286 119.253 51.4609C117.75 54.9931 115.243 58.005 112.044 60.1218C108.846 62.2387 105.097 63.3673 101.263 63.3672Z" fill="#49454F"/>
<path d="M118.23 43.7817C118.23 48.2886 116.443 52.6109 113.261 55.7978C110.079 58.9846 105.763 60.775 101.263 60.775C96.7634 60.775 92.4478 58.9846 89.2659 55.7978C86.084 52.6109 84.2964 48.2886 84.2964 43.7817C84.2964 43.2431 84.3222 42.7131 84.3711 42.1889C84.78 37.8393 86.8458 33.8144 90.1396 30.9501C93.4334 28.0858 97.7021 26.6021 102.059 26.8071C106.417 27.0121 110.528 28.89 113.539 32.0509C116.55 35.2118 118.23 39.4128 118.23 43.7817Z" fill="#1C1B1F" fill-opacity="0.12"/>
<path d="M106.316 44.9107C105.905 44.3691 105.364 43.9402 104.743 43.6636C103.977 43.3404 103.187 43.0803 102.379 42.8859V38.2602C103.621 38.4477 104.785 38.9795 105.741 39.7954L106.678 37.7937C106.139 37.3125 105.52 36.9295 104.849 36.6617C104.106 36.3602 103.325 36.1597 102.529 36.0655V33.721H100.357V36.0886C99.519 36.1829 98.7103 36.4548 97.9849 36.8864C97.3297 37.2748 96.7781 37.8164 96.3773 38.4647C95.9948 39.0975 95.7966 39.8248 95.8051 40.5644C95.7677 41.366 95.9996 42.1569 96.4636 42.811C96.8908 43.3773 97.4549 43.8253 98.1027 44.1129C98.8805 44.4455 99.6847 44.7124 100.507 44.9107V49.3434C99.0417 49.2327 97.6456 48.6748 96.5068 47.7448L95.5693 49.7495C96.2061 50.2767 96.9303 50.6881 97.7089 50.9649C98.562 51.2707 99.4534 51.4568 100.357 51.5179V53.8423H102.529V51.4747C103.735 51.3427 104.865 50.8234 105.752 49.9943C106.143 49.6192 106.451 49.1669 106.658 48.6662C106.865 48.1654 106.966 47.6271 106.954 47.0853C106.99 46.3093 106.766 45.5436 106.316 44.9107ZM100.507 42.3962C99.9781 42.2356 99.4864 41.9713 99.0604 41.6186C98.8916 41.4682 98.7582 41.2823 98.6697 41.0741C98.5812 40.8659 98.5399 40.6407 98.5486 40.4147C98.5329 39.9017 98.7211 39.4034 99.0719 39.0293C99.4609 38.6368 99.9626 38.3759 100.507 38.2833V42.3962ZM103.742 48.5254C103.375 48.9022 102.898 49.1515 102.379 49.2368V45.4234C102.875 45.5566 103.338 45.7888 103.742 46.106C103.895 46.2369 104.017 46.4007 104.098 46.5852C104.179 46.7697 104.218 46.9702 104.211 47.1717C104.231 47.666 104.063 48.1496 103.742 48.5254Z" fill="#6C63F0"/>
<path d="M53.6462 77.9884C53.2016 77.9877 52.7697 77.84 52.4175 77.5684C52.0652 77.2968 51.8123 76.9164 51.6979 76.4861L50.6137 72.3761C50.4779 71.8595 50.5524 71.31 50.8206 70.8483C51.0888 70.3866 51.5289 70.0502 52.0444 69.9131L86.2488 60.8606C86.7649 60.7257 87.3134 60.8011 87.7743 61.0702C88.2351 61.3393 88.5708 61.7802 88.7078 62.2965L89.6263 65.7787L89.4542 65.792C80.6819 66.4752 72.2884 69.6607 65.267 74.9716L65.2171 74.9958L54.1569 77.922C53.9902 77.9661 53.8186 77.9884 53.6462 77.9884Z" fill="#49454F"/>
<path d="M47.9815 98.2901C43.9692 97.6964 40.1318 96.2432 36.7309 94.0296C35.0461 92.9338 33.4864 91.6561 32.0797 90.2196C30.6913 88.8012 29.3631 87.1892 28.6755 85.3004C28.0138 83.5528 28.0479 81.6175 28.7707 79.8944C29.4836 78.1819 30.8455 76.8223 32.5577 76.1139C34.2802 75.426 36.3613 75.3524 38.0376 76.1058C38.8364 76.4565 39.5276 77.0138 40.0404 77.7204C40.2787 78.0462 40.4552 78.4131 40.561 78.8029C40.6591 79.156 40.6681 79.5281 40.5869 79.8856C40.4886 80.2425 40.3153 80.5742 40.0785 80.8585C39.8417 81.1427 39.547 81.3731 39.2141 81.5339C38.4814 81.9104 37.6875 82.1529 36.8697 82.25C36.0472 82.3623 34.8657 82.4646 34.2045 81.8033C34.0684 81.6725 33.9613 81.5144 33.8903 81.3393C33.8406 81.2053 33.8236 81.0613 33.8407 80.9194C33.8311 80.982 33.8806 80.7833 33.8778 80.7913C33.8673 80.8206 33.822 80.8922 33.8864 80.7822C33.9065 80.746 33.9289 80.7111 33.9535 80.6777C33.9316 80.706 33.8836 80.7532 33.9693 80.6722C34.0401 80.5945 34.1312 80.5382 34.2322 80.5096C34.272 80.498 34.3124 80.4888 34.3523 80.4778C34.4538 80.4501 34.2512 80.4794 34.355 80.476C34.3951 80.4747 34.4356 80.4757 34.4755 80.4739C34.5773 80.4693 34.3751 80.4461 34.4726 80.4707C34.5105 80.4802 34.548 80.4895 34.5854 80.5013C34.6665 80.5269 34.5279 80.4417 34.5829 80.5055C34.6473 80.5802 34.5152 80.4328 34.5885 80.5051C34.6249 80.541 34.6592 80.5789 34.6913 80.6187C34.8183 80.7443 34.9895 80.8147 35.168 80.8147C35.3464 80.8147 35.5177 80.7443 35.6446 80.6187C35.7673 80.4901 35.8357 80.3191 35.8357 80.1413C35.8357 79.9635 35.7673 79.7925 35.6446 79.6639C34.9799 78.8386 33.667 79.0425 32.9946 79.7401C32.137 80.6296 32.4766 82.0394 33.3107 82.8156C34.2551 83.6942 35.5925 83.7553 36.8072 83.6079C37.8338 83.5095 38.8342 83.2263 39.7603 82.7721C40.6806 82.3192 41.4004 81.5404 41.7803 80.5865C41.9518 80.0775 42.0134 79.5377 41.961 79.003C41.9086 78.4683 41.7435 77.9508 41.4765 77.4849C40.404 75.4655 38.1833 74.4302 35.9883 74.2508C34.8582 74.1622 33.7217 74.2989 32.6447 74.653C31.5677 75.0071 30.5715 75.5716 29.7137 76.3139C28.0605 77.8046 27.0424 79.8746 26.8701 82.0959C26.6785 84.399 27.5707 86.6355 28.8714 88.4942C30.2332 90.3826 31.8581 92.0657 33.6968 93.4923C37.2913 96.3665 41.5077 98.3581 46.0085 99.3077C46.5438 99.4185 47.082 99.5133 47.6231 99.5921C47.7953 99.6339 47.9769 99.6084 48.131 99.5208C48.285 99.4332 48.3999 99.2901 48.4523 99.1206C48.4985 98.948 48.4751 98.7641 48.387 98.6087C48.2988 98.4532 48.1532 98.3388 47.9815 98.2901Z" fill="#49454F"/>
<path d="M112.222 68.9474C106.343 68.8643 100.483 69.0137 94.6413 69.3956C92.6446 69.5262 90.917 70.2331 90.917 71.421C90.917 72.4143 92.6308 73.5779 94.6413 73.4464C100.48 73.0646 106.34 72.9151 112.222 72.9982C117.017 73.0659 117.014 69.0151 112.222 68.9474Z" fill="#1C1B1F" fill-opacity="0.12"/>
<path d="M103.533 72.7975C102.897 72.7975 87.9731 72.7738 87.9731 70.7091C87.9731 68.6445 102.897 68.6208 103.533 68.6208C104.168 68.6208 119.092 68.6446 119.092 70.7091C119.092 72.7738 104.168 72.7975 103.533 72.7975ZM88.5567 70.7091C88.9651 71.3351 94.451 72.2215 103.533 72.2215C112.614 72.2215 118.1 71.3351 118.509 70.7091C118.1 70.0833 112.614 69.1968 103.533 69.1968C94.451 69.1968 88.9651 70.0833 88.5567 70.7091Z" fill="#49454F"/>
<path d="M150.883 127.076C154.187 126.984 158.299 126.869 161.466 124.551C162.41 123.833 163.185 122.917 163.737 121.867C164.289 120.817 164.606 119.658 164.664 118.473C164.729 116.643 164.069 115.045 162.805 113.976C161.151 112.576 158.735 112.247 156.131 113.014L158.829 93.2701L156.849 92.9984L153.677 116.209L155.331 115.449C157.248 114.569 159.88 114.12 161.515 115.505C161.917 115.866 162.229 116.316 162.429 116.819C162.629 117.321 162.71 117.863 162.667 118.403C162.619 119.285 162.381 120.146 161.97 120.928C161.56 121.71 160.986 122.395 160.287 122.935C157.822 124.738 154.545 124.971 150.828 125.075L150.883 127.076Z" fill="#49454F"/>
<path d="M145.408 94.9729H134.644V96.9747H145.408V94.9729Z" fill="#49454F"/>
<path d="M58.5175 87.1953C58.0384 87.1937 57.5754 87.0214 57.2116 86.7091C56.8478 86.3968 56.6069 85.9649 56.5321 85.4909L55.875 81.2911C55.793 80.7629 55.9235 80.2237 56.2379 79.7917C56.5523 79.3597 57.025 79.0704 57.5522 78.9871L92.5017 73.5024C93.0291 73.4202 93.5674 73.5509 93.9987 73.8658C94.4299 74.1808 94.7188 74.6541 94.802 75.1821L95.459 79.3821C95.5411 79.9103 95.4106 80.4495 95.0962 80.8815C94.7818 81.3134 94.3091 81.6028 93.7819 81.6861L58.8325 87.1707C58.7283 87.187 58.623 87.1952 58.5175 87.1953Z" fill="#49454F"/>
<path d="M44.0536 37.9771C52.1536 37.9771 58.7199 31.4006 58.7199 23.288C58.7199 15.1754 52.1536 8.59882 44.0536 8.59882C35.9536 8.59882 29.3872 15.1754 29.3872 23.288C29.3872 31.4006 35.9536 37.9771 44.0536 37.9771Z" fill="#6C63F0"/>
<path d="M52.3571 27.0887C52.8259 26.9245 53.2541 26.6617 53.6129 26.3179C53.8504 26.0729 54.0314 25.7787 54.1434 25.4562C54.2554 25.1336 54.2957 24.7905 54.2613 24.4507C54.2414 24.2085 54.1658 23.9743 54.0405 23.7662C53.9152 23.5582 53.7435 23.3819 53.5389 23.2513C53.0081 22.9244 52.3068 22.9368 51.5987 23.2655L51.5169 17.5316L50.9419 17.5398L51.0379 24.2806L51.4757 23.9931C51.9834 23.6601 52.7128 23.4187 53.2376 23.742C53.3674 23.8276 53.4757 23.942 53.5542 24.0764C53.6326 24.2108 53.6791 24.3614 53.6899 24.5167C53.7141 24.7698 53.6836 25.0252 53.6004 25.2654C53.5172 25.5056 53.3833 25.7251 53.2079 25.9089C52.5844 26.5285 51.6616 26.7361 50.6084 26.9259L50.7103 27.4928C51.2702 27.4076 51.8213 27.2724 52.3571 27.0887Z" fill="#49454F"/>
<path d="M57.4392 17.1291L54.3765 17.5937L54.4626 18.1632L57.5253 17.6986L57.4392 17.1291Z" fill="#49454F"/>
<path d="M47.7722 18.5951L44.7095 19.0597L44.7956 19.6292L47.8583 19.1646L47.7722 18.5951Z" fill="#49454F"/>
<path d="M53.7455 86.9385C53.218 86.9374 52.7034 86.7754 52.2701 86.4742C51.8368 86.1729 51.5054 85.7467 51.3199 85.2521L41.2079 58.1293C39.9719 54.8029 40.1039 51.1213 41.5749 47.8922C43.0458 44.6631 45.7356 42.1502 49.0542 40.9049L57.2764 37.8299C57.5944 37.7102 57.9328 37.6547 58.2722 37.6665C58.6117 37.6783 58.9455 37.7572 59.2544 37.8987C59.5625 38.0366 59.8401 38.2346 60.071 38.4812C60.3018 38.7277 60.4813 39.0179 60.5989 39.3347L79.3306 74.7569C79.4522 75.0763 79.5095 75.4166 79.4993 75.7583C79.4891 76.1 79.4115 76.4363 79.271 76.7479C79.1305 77.0594 78.9299 77.3401 78.6806 77.5737C78.4314 77.8072 78.1386 77.9892 77.8189 78.1089L54.65 86.7738C54.3607 86.8825 54.0544 86.9382 53.7455 86.9385Z" fill="#49454F"/>
<path d="M54.7822 38.7628L73.3679 63.6554L60.7918 39.0241C60.6879 38.7367 60.5286 38.4726 60.3228 38.2469C60.117 38.0212 59.8688 37.8384 59.5924 37.7087C59.3161 37.5791 59.0169 37.5053 58.7121 37.4915C58.4072 37.4777 58.1026 37.5242 57.8157 37.6283L54.7822 38.7628Z" fill="#1C1B1F" fill-opacity="0.12"/>
<path d="M84.2102 57.6672L51.0254 55.5263C50.5023 55.4925 49.991 55.3559 49.5206 55.1243C49.0502 54.8926 48.63 54.5705 48.284 54.1762C47.938 53.7819 47.6728 53.3231 47.5038 52.8262C47.3348 52.3293 47.2651 51.8039 47.2988 51.28C47.3325 50.7561 47.4689 50.244 47.7002 49.7729C47.9315 49.3018 48.2531 48.881 48.6468 48.5344C49.0405 48.1878 49.4985 47.9223 49.9947 47.753C50.4908 47.5837 51.0154 47.5139 51.5385 47.5476L84.7233 49.6884C84.9683 49.7042 85.2077 49.7681 85.428 49.8766C85.6483 49.9851 85.8451 50.136 86.0072 50.3206C86.1692 50.5053 86.2934 50.7201 86.3725 50.9528C86.4517 51.1855 86.4843 51.4316 86.4686 51.6769L86.1958 55.9193C86.1639 56.4148 85.9368 56.8773 85.5644 57.2051C85.192 57.5329 84.7049 57.6991 84.2102 57.6672Z" fill="#6C63F0"/>
<path d="M75.3427 59.0397C75.2989 59.0397 75.2549 59.0383 75.2109 59.0355L47.9613 57.2775C47.6975 57.2605 47.4396 57.1917 47.2024 57.0749C46.9651 56.958 46.7532 56.7956 46.5787 56.5967C46.4041 56.3979 46.2704 56.1665 46.1852 55.9159C46.0999 55.6653 46.0648 55.4003 46.0818 55.1361L46.5478 47.8899C46.5648 47.6257 46.6336 47.3674 46.7502 47.1298C46.8669 46.8922 47.0291 46.68 47.2277 46.5052C47.4263 46.3304 47.6573 46.1965 47.9075 46.1111C48.1578 46.0258 48.4224 45.9906 48.6862 46.0077L75.9357 47.7655C76.4682 47.8004 76.9652 48.0455 77.3175 48.447C77.6698 48.8484 77.8488 49.3735 77.8151 49.9069L77.3492 57.1532C77.3235 57.5415 77.1865 57.9141 76.9546 58.2263C76.7227 58.5385 76.4058 58.777 76.0418 58.9133C75.8182 58.997 75.5814 59.0399 75.3427 59.0397Z" fill="#49454F"/>
<path d="M43.8855 13.5199C45.815 11.8579 48.4645 13.3447 50.6771 13.0844C52.794 12.8354 54.4656 10.9336 54.8926 8.91318C55.3908 6.556 54.1692 4.19445 52.3686 2.72479C50.3966 1.11515 47.7812 0.653066 45.3028 0.950862C42.4622 1.29217 39.8644 2.61832 37.5334 4.22238C35.2834 5.72272 33.2142 7.47878 31.3673 9.45551C29.7134 11.2849 28.3121 13.4656 27.8647 15.9273C27.458 18.1645 27.7685 20.6437 29.089 22.5389C29.7893 23.5103 30.7276 24.2846 31.8136 24.787C32.9459 25.3439 34.1537 25.742 35.2507 26.3716C36.9094 27.3236 38.5215 29.2976 38.0019 31.3518C37.8905 31.8006 37.6707 32.215 37.3617 32.5586C36.9906 32.9713 36.3211 32.426 36.6932 32.0122C37.3468 31.2855 37.3211 30.3164 36.9728 29.4488C36.5586 28.4711 35.8251 27.6633 34.8926 27.1577C33.7443 26.5002 32.4766 26.0943 31.2996 25.4954C30.1731 24.9483 29.1953 24.1367 28.4494 23.1296C27.0407 21.1691 26.6194 18.6175 26.9389 16.2571C27.2846 13.7028 28.5949 11.3817 30.2375 9.43661C32.0252 7.3198 34.221 5.52799 36.4643 3.91828C38.8713 2.19105 41.5306 0.730797 44.4733 0.202647C47.0241 -0.255177 49.789 0.0266884 52.0196 1.41895C54.1017 2.71853 55.6984 4.95407 55.8572 7.45207C55.9142 8.58865 55.6678 9.71992 55.1433 10.7295C54.6188 11.739 53.8353 12.5903 52.8732 13.1958C51.886 13.7875 50.7383 14.0538 49.592 13.9572C48.3664 13.8786 47.1397 13.5027 45.9064 13.6071C45.3483 13.641 44.8164 13.8562 44.3914 14.2201C43.9699 14.5833 43.4675 13.8801 43.8855 13.5199Z" fill="#49454F"/>
<path d="M212.658 172H0.342398C0.251756 172 0.164919 171.963 0.100919 171.899C0.0369184 171.835 0.000976562 171.748 0.000976562 171.657C0.000976562 171.566 0.0369184 171.479 0.100919 171.415C0.164919 171.351 0.251756 171.314 0.342398 171.314H212.658C212.748 171.314 212.835 171.35 212.9 171.415C212.964 171.479 213 171.566 213 171.657C213 171.748 212.964 171.835 212.9 171.9C212.835 171.964 212.748 172 212.658 172Z" fill="#49454F"/>
</g>
<defs>
<clipPath id="clip0_43_6029">
<rect width="213" height="172" fill="white"/>
</clipPath>
</defs>
</svg>
