<svg width="200" height="200" viewBox="0 0 200 200" fill="none" xmlns="http://www.w3.org/2000/svg">
<g clip-path="url(#clip0_43_5993)">
<path d="M61.7606 146.715H36.7082C36.0767 146.715 35.5627 146.189 35.5627 145.542C35.5627 144.895 36.0767 144.369 36.7082 144.369H61.7606C62.3922 144.369 62.9059 144.895 62.9059 145.542C62.9059 146.189 62.3922 146.715 61.7606 146.715Z" fill="#6C63FF"/>
<path d="M17.0183 152.995C17.0183 153.205 17.1836 153.375 17.3893 153.375H81.0794C81.2852 153.375 81.4504 153.205 81.4504 152.995C81.4504 152.784 81.2852 152.615 81.0794 152.615H17.3893C17.1836 152.615 17.0183 152.784 17.0183 152.995Z" fill="#3F3D56"/>
<path d="M151.394 76.4389C162.586 76.4389 171.659 67.1471 171.659 55.6851C171.659 44.2231 162.586 34.9313 151.394 34.9313C140.203 34.9313 131.13 44.2231 131.13 55.6851C131.13 67.1471 140.203 76.4389 151.394 76.4389Z" fill="#FF6884"/>
<path d="M0 179.22C0 179.43 0.165244 179.6 0.371017 179.6H163.202C163.408 179.6 163.573 179.43 163.573 179.22C163.573 179.009 163.408 178.84 163.202 178.84H0.371017C0.165244 178.84 0 179.009 0 179.22Z" fill="#3F3D56"/>
<path d="M2.35535 153.561L1.83447 152.977L52.6717 105.467L70.9875 113.876L90.7658 79.1396L107.016 71.1179L122.071 96.8166C130.2 75.265 150.585 52.7171 175.012 29.8406L175.613 30.3389C152.703 52.8023 133.101 75.3676 121.977 98.1943L108.051 74.3539C107.393 73.2277 106.011 72.7926 104.849 73.3463C95.9664 77.579 88.5576 84.4881 83.613 93.1496L71.2237 114.852L68.3956 113.554C58.9373 109.211 47.8647 111.031 40.2081 118.187L2.35535 153.561Z" fill="#3F3D56"/>
<path d="M176.158 34.1659L175.386 34.2208L174.141 31.4565L171.352 30.8764L171.244 30.0919L175.841 29.4229L176.158 34.1659Z" fill="#3F3D56"/>
<path d="M96.8599 51.0799L99.5926 40.3208L110.238 39.7963L113.423 54.6275L96.8599 51.0799Z" fill="#FFB6B6"/>
<path opacity="0.1" d="M96.8599 51.0799L99.5926 40.3208L110.238 39.7963L113.423 54.6275L96.8599 51.0799Z" fill="black"/>
<path d="M103.865 46.3419C110.962 46.3419 116.715 40.45 116.715 33.1819C116.715 25.9139 110.962 20.022 103.865 20.022C96.7684 20.022 91.0154 25.9139 91.0154 33.1819C91.0154 40.45 96.7684 46.3419 103.865 46.3419Z" fill="#FFB6B6"/>
<path d="M110.955 35.9675C110.955 35.9675 106.073 26.0623 100.354 26.6342C94.6345 27.2061 91.6214 27.9016 91.6214 27.9016C91.6214 27.9016 89.9236 20.187 97.9167 17.2195C97.9167 17.2195 87.7537 6.95955 99.8536 1.92657C111.953 -3.10642 118.724 3.31252 118.724 3.31252C118.724 3.31252 127.681 12.4695 116.4 19.3136C116.4 19.3136 124.776 30.8523 114.635 40.3628C114.635 40.3628 116.903 32.6667 114.537 34.086C112.17 35.5053 110.955 35.9675 110.955 35.9675Z" fill="#2F2E41"/>
<path d="M89.6876 105.497L87.9783 107.175L75.6302 134.29L74.2786 179.141H95.025L104.757 156.93L111.314 178.927H129.968L134.293 138.997L122.668 110.757L89.6876 105.497Z" fill="#2F2E41"/>
<path d="M111.179 49.9866H97.324L82.2534 58.2923L85.7677 74.3502C85.7677 74.3502 84.9568 84.0402 86.8491 91.2386C88.7414 98.4369 87.9304 107.85 87.9304 107.85L122.668 110.757L123.75 78.0878L123.209 56.2159L111.179 49.9866Z" fill="#E6E6E6"/>
<path d="M84.5512 58.4308C84.5512 58.4308 76.1709 58.7076 74.8192 64.2448C73.4676 69.782 72.3862 98.2985 72.3862 98.2985C72.3862 98.2985 73.1972 115.22 82.2534 107.174C91.3096 99.1291 90.4986 74.7655 90.4986 74.7655L84.5512 58.4308Z" fill="#E6E6E6"/>
<path d="M165.835 199.681H116.449C114.777 199.681 113.416 198.287 113.416 196.574V144.288C113.416 142.575 114.777 141.181 116.449 141.181H165.835C167.508 141.181 168.869 142.575 168.869 144.288V196.574C168.869 198.287 167.508 199.681 165.835 199.681Z" fill="white"/>
<path d="M165.835 200H116.449C114.605 200 113.104 198.463 113.104 196.574V144.288C113.104 142.399 114.605 140.862 116.449 140.862H165.835C167.68 140.862 169.18 142.399 169.18 144.288V196.574C169.18 198.463 167.68 200 165.835 200ZM116.449 141.501C114.948 141.501 113.728 142.751 113.728 144.288V196.574C113.728 198.111 114.948 199.361 116.449 199.361H165.835C167.336 199.361 168.557 198.111 168.557 196.574V144.288C168.557 142.751 167.336 141.501 165.835 141.501H116.449Z" fill="#3F3D56"/>
<path d="M143.091 185.945H139.021C138.525 185.945 138.122 185.626 138.122 185.234V167.286C138.122 166.895 138.525 166.576 139.021 166.576H143.091C143.587 166.576 143.99 166.895 143.99 167.286V185.234C143.99 185.626 143.587 185.945 143.091 185.945Z" fill="#6C63FF"/>
<path d="M129.634 175.368C129.234 175.368 128.908 175.625 128.908 175.942V185.214C128.908 185.531 129.234 185.788 129.634 185.788H133.705C134.105 185.788 134.431 185.531 134.431 185.214V175.942C134.431 175.625 134.105 175.368 133.705 175.368H129.634Z" fill="#6C63FF"/>
<path d="M152.478 185.945H148.408C147.912 185.945 147.509 185.626 147.509 185.234V155.821C147.509 155.429 147.912 155.111 148.408 155.111H152.478C152.974 155.111 153.377 155.429 153.377 155.821V185.234C153.377 185.626 152.974 185.945 152.478 185.945Z" fill="#6C63FF"/>
<path d="M64.8857 57.0161H60.2361C59.67 57.0161 59.2095 56.6521 59.2095 56.2046V35.7031C59.2095 35.2556 59.67 34.8915 60.2361 34.8915H64.8857C65.4518 34.8915 65.9123 35.2556 65.9123 35.7031V56.2046C65.9123 56.6521 65.4518 57.0161 64.8857 57.0161Z" fill="#6C63FF"/>
<path d="M49.5138 44.9344C49.0565 44.9344 48.6843 45.2286 48.6843 45.5902V56.1817C48.6843 56.5432 49.0565 56.8374 49.5138 56.8374H54.1634C54.6207 56.8374 54.9929 56.5432 54.9929 56.1817V45.5902C54.9929 45.2286 54.6207 44.9344 54.1634 44.9344H49.5138Z" fill="#6C63FF"/>
<path d="M75.6081 57.0161H70.9585C70.3924 57.0161 69.9319 56.6521 69.9319 56.2046V22.6064C69.9319 22.1588 70.3924 21.7948 70.9585 21.7948H75.6081C76.1742 21.7948 76.6347 22.1588 76.6347 22.6064V56.2046C76.6347 56.6521 76.1742 57.0161 75.6081 57.0161Z" fill="#6C63FF"/>
<path d="M133.571 148.789C135.979 148.553 137.638 145.22 137.275 141.343C137.151 139.792 136.666 138.295 135.861 136.975L135.397 132.588L135.468 132.566L136.635 111.762C136.906 106.924 135.037 102.171 131.434 99.03C129.292 97.1614 127.006 96.2154 125.536 98.5763C123.096 102.494 126.256 118.643 128.331 127.824L129.135 137.635C128.589 139.087 128.39 140.652 128.555 142.199C128.917 146.075 131.163 149.025 133.571 148.789Z" fill="#FFB6B6"/>
<path d="M120.235 56.7696C120.235 56.7696 127.264 54.001 130.508 62.3068C133.752 70.6126 137.266 111.588 137.266 111.588L120.776 108.542L120.235 56.7696Z" fill="#E6E6E6"/>
<path d="M23.7225 52.707H14.2583C13.6267 52.707 13.1128 52.1807 13.1128 51.5339C13.1128 50.887 13.6267 50.361 14.2583 50.361H23.7225C24.3541 50.361 24.8678 50.887 24.8678 51.5339C24.8678 52.1807 24.3541 52.707 23.7225 52.707Z" fill="#E6E6E6"/>
<path d="M23.7225 36.0787H14.2583C13.6267 36.0787 13.1128 35.5524 13.1128 34.9056C13.1128 34.2587 13.6267 33.7327 14.2583 33.7327H23.7225C24.3541 33.7327 24.8678 34.2587 24.8678 34.9056C24.8678 35.5524 24.3541 36.0787 23.7225 36.0787Z" fill="#E6E6E6"/>
<path d="M23.7225 24.0872H14.2583C13.6267 24.0872 13.1128 23.5608 13.1128 22.914C13.1128 22.2672 13.6267 21.7411 14.2583 21.7411H23.7225C24.3541 21.7411 24.8678 22.2672 24.8678 22.914C24.8678 23.5608 24.3541 24.0872 23.7225 24.0872Z" fill="#E6E6E6"/>
<path d="M12.7332 57.0741C12.7332 57.2848 12.8984 57.4541 13.1042 57.4541H76.7942C77 57.4541 77.1652 57.2848 77.1652 57.0741C77.1652 56.8634 77 56.6942 76.7942 56.6942H13.1042C12.8984 56.6942 12.7332 56.8634 12.7332 57.0741Z" fill="#3F3D56"/>
<path d="M135.568 155.415C135.568 155.626 135.733 155.795 135.939 155.795H199.629C199.835 155.795 200 155.626 200 155.415C200 155.204 199.835 155.035 199.629 155.035H135.939C135.733 155.035 135.568 155.204 135.568 155.415Z" fill="#3F3D56"/>
<path d="M116.862 186.386C116.862 186.597 117.027 186.766 117.233 186.766H180.923C181.129 186.766 181.294 186.597 181.294 186.386C181.294 186.175 181.129 186.006 180.923 186.006H117.233C117.027 186.006 116.862 186.175 116.862 186.386Z" fill="#3F3D56"/>
<path d="M74.0335 55.1533C71.6253 55.3894 69.9669 58.7223 70.3292 62.5991C70.4532 64.1498 70.938 65.6475 71.7431 66.967L72.2072 71.3547L72.1361 71.3765L70.9694 92.1807C70.6982 97.018 72.5679 101.771 76.17 104.912C78.3129 106.781 80.5989 107.727 82.0689 105.366C84.508 101.448 81.3486 85.2997 79.2738 76.1186L78.4694 66.3075C79.0158 64.8553 79.2146 63.2901 79.0492 61.743C78.6875 57.8674 76.4418 54.9171 74.0335 55.1533Z" fill="#FFB6B6"/>
</g>
<defs>
<clipPath id="clip0_43_5993">
<rect width="200" height="200" fill="white"/>
</clipPath>
</defs>
</svg>
