<svg width="170" height="195" viewBox="0 0 170 195" fill="none" xmlns="http://www.w3.org/2000/svg">
<g clip-path="url(#clip0_43_6055)">
<path d="M160.064 158.893C159.73 158.329 158.282 158.933 158.015 158.421C157.75 157.912 159.096 157.136 159.864 155.363C160.003 155.044 160.876 153.029 160.23 152.407C159.004 151.229 153.396 156.092 151.433 154.5C151.002 154.151 150.701 153.454 149.398 152.322C148.879 151.872 148.565 151.668 148.262 151.744C147.831 151.851 147.797 152.427 147.335 153.558C146.643 155.254 146.233 155.151 145.83 156.505C145.53 157.509 145.599 158.093 145.246 158.207C144.747 158.368 144.288 157.303 143.656 157.398C143.011 157.495 142.621 158.736 142.498 159.665C142.267 161.408 142.908 162.558 143.264 163.768C143.65 165.082 143.879 167.081 142.987 169.911L134.156 194.743C136.106 189.648 141.751 175.68 144.123 170.489C144.808 168.991 145.564 167.471 147.116 166.871C148.611 166.293 150.664 166.638 153.28 166.009C153.586 165.935 154.434 165.72 154.541 165.222C154.629 164.811 154.13 164.581 154.207 164.195C154.31 163.678 155.291 163.672 156.496 163.075C157.347 162.655 157.876 162.154 158.332 161.724C158.469 161.594 160.51 159.642 160.064 158.893Z" fill="#F2F2F2"/>
<path d="M125.321 171.965C124.947 171.967 124.826 172.85 124.498 172.833C124.171 172.816 124.178 171.933 123.527 171.045C123.41 170.885 122.671 169.876 122.179 170.013C121.246 170.273 122.019 174.424 120.67 174.926C120.374 175.036 119.945 174.982 119.012 175.294C118.641 175.418 118.45 175.513 118.4 175.684C118.329 175.926 118.602 176.109 119.025 176.661C119.659 177.49 119.49 177.661 120.039 178.249C120.447 178.685 120.754 178.82 120.708 179.026C120.643 179.317 119.987 179.234 119.852 179.571C119.713 179.915 120.211 180.464 120.632 180.793C121.423 181.409 122.174 181.427 122.871 181.601C123.629 181.791 124.678 182.256 125.812 183.509L135.476 195C133.533 192.575 128.292 185.779 126.424 183.12C125.885 182.352 125.355 181.543 125.508 180.61C125.656 179.711 126.417 178.805 126.863 177.341C126.915 177.171 127.054 176.693 126.84 176.497C126.663 176.335 126.406 176.513 126.239 176.364C126.014 176.165 126.294 175.682 126.348 174.92C126.387 174.382 126.294 173.978 126.213 173.631C126.189 173.526 125.818 171.963 125.321 171.965Z" fill="#F2F2F2"/>
<path d="M132.773 173.635L132.548 171.63L132.651 171.478C133.127 170.775 133.37 170.088 133.372 169.437C133.373 169.333 133.368 169.23 133.363 169.124C133.344 168.706 133.32 168.186 133.591 167.58C133.744 167.242 134.171 166.46 134.814 166.557C134.988 166.581 135.119 166.66 135.218 166.753C135.233 166.73 135.248 166.707 135.264 166.681C135.464 166.376 135.623 166.246 135.775 166.12C135.893 166.023 136.014 165.923 136.204 165.687C136.288 165.583 136.353 165.492 136.407 165.416C136.574 165.185 136.791 164.909 137.174 164.914C137.584 164.933 137.798 165.271 137.94 165.494C138.194 165.893 138.309 166.181 138.385 166.372C138.413 166.441 138.444 166.52 138.46 166.544C138.592 166.738 139.665 166.557 140.069 166.491C140.976 166.34 141.761 166.209 142.085 166.78C142.317 167.189 142.145 167.729 141.558 168.429C141.375 168.647 141.18 168.812 141.008 168.942C141.151 169.027 141.279 169.158 141.331 169.363C141.453 169.849 141.034 170.336 140.087 170.813C139.852 170.932 139.535 171.091 139.091 171.167C138.882 171.203 138.694 171.212 138.533 171.216C138.529 171.309 138.508 171.41 138.451 171.514C138.285 171.819 137.938 171.964 137.416 171.929C136.842 171.899 136.369 171.79 135.952 171.694C135.588 171.61 135.274 171.54 135.027 171.556C134.571 171.593 134.218 171.958 133.805 172.431L132.773 173.635Z" fill="#F2F2F2"/>
<path d="M133.817 161.696L131.931 162.422L131.757 162.362C130.955 162.081 130.229 162.021 129.596 162.183C129.496 162.209 129.397 162.24 129.296 162.271C128.895 162.396 128.397 162.551 127.741 162.443C127.375 162.382 126.508 162.167 126.439 161.521C126.418 161.348 126.462 161.202 126.527 161.082C126.501 161.074 126.474 161.065 126.446 161.056C126.1 160.94 125.933 160.82 125.772 160.705C125.648 160.616 125.521 160.524 125.244 160.4C125.122 160.346 125.018 160.307 124.929 160.273C124.663 160.171 124.34 160.031 124.248 159.66C124.163 159.26 124.436 158.967 124.617 158.773C124.939 158.427 125.189 158.243 125.354 158.122C125.415 158.077 125.483 158.027 125.502 158.005C125.656 157.829 125.209 156.839 125.042 156.466C124.666 155.628 124.34 154.903 124.812 154.446C125.149 154.119 125.716 154.148 126.543 154.537C126.801 154.658 127.011 154.804 127.18 154.938C127.227 154.778 127.321 154.621 127.506 154.519C127.947 154.278 128.525 154.558 129.227 155.352C129.402 155.549 129.636 155.814 129.823 156.223C129.91 156.416 129.967 156.596 130.012 156.75C130.103 156.73 130.206 156.725 130.321 156.754C130.659 156.837 130.887 157.134 130.986 157.647C131.103 158.209 131.117 158.693 131.129 159.12C131.141 159.493 131.152 159.814 131.231 160.048C131.382 160.48 131.825 160.727 132.389 161.006L133.817 161.696Z" fill="#F2F2F2"/>
<path d="M132.773 155.789L132.548 153.784L132.651 153.632C133.127 152.929 133.37 152.243 133.372 151.591C133.373 151.488 133.368 151.384 133.363 151.279C133.344 150.86 133.32 150.34 133.591 149.734C133.744 149.396 134.171 148.614 134.814 148.711C134.988 148.735 135.119 148.815 135.218 148.907C135.233 148.884 135.248 148.861 135.264 148.836C135.464 148.531 135.623 148.4 135.775 148.274C135.893 148.177 136.014 148.078 136.204 147.842C136.288 147.738 136.353 147.647 136.407 147.57C136.574 147.339 136.791 147.063 137.174 147.068C137.584 147.087 137.798 147.425 137.94 147.649C138.194 148.048 138.309 148.335 138.385 148.526C138.413 148.596 138.444 148.674 138.46 148.698C138.592 148.892 139.665 148.711 140.069 148.645C140.976 148.494 141.761 148.363 142.085 148.935C142.317 149.343 142.145 149.883 141.558 150.583C141.375 150.801 141.18 150.967 141.008 151.097C141.151 151.182 141.279 151.312 141.331 151.518C141.453 152.004 141.034 152.491 140.087 152.967C139.852 153.086 139.535 153.245 139.091 153.321C138.882 153.357 138.694 153.366 138.533 153.371C138.529 153.464 138.508 153.564 138.451 153.668C138.285 153.973 137.938 154.118 137.416 154.083C136.842 154.053 136.369 153.944 135.952 153.848C135.588 153.765 135.274 153.694 135.027 153.711C134.571 153.747 134.218 154.112 133.805 154.586L132.773 155.789Z" fill="#F2F2F2"/>
<path d="M134.829 194.71L134.408 194.447L133.917 194.503C133.909 194.458 133.883 194.353 133.842 194.189C133.623 193.293 132.953 190.565 132.394 186.268C132.004 183.268 131.783 180.185 131.738 177.101C131.692 174.013 131.839 171.674 131.956 169.795C132.045 168.378 132.153 167.028 132.258 165.713C132.54 162.201 132.805 158.883 132.607 155.209C132.564 154.389 132.472 152.683 131.473 150.866C130.893 149.813 130.095 148.878 129.1 148.088L129.719 147.311C130.817 148.184 131.7 149.22 132.344 150.39C133.452 152.404 133.552 154.264 133.6 155.157C133.801 158.895 133.532 162.245 133.248 165.792C133.143 167.102 133.036 168.445 132.948 169.857C132.831 171.719 132.686 174.037 132.731 177.086C132.776 180.132 132.994 183.178 133.379 186.14C133.931 190.383 134.591 193.07 134.808 193.953C134.923 194.425 134.947 194.523 134.829 194.71Z" fill="#F2F2F2"/>
<path d="M127.278 149.663C127.237 149.663 127.196 149.662 127.154 149.659C126.308 149.613 125.525 149.108 124.826 148.157C124.498 147.71 124.33 147.2 123.995 146.182C123.943 146.025 123.691 145.229 123.538 144.134C123.437 143.419 123.45 143.12 123.592 142.855C123.75 142.561 124.005 142.356 124.292 142.217C124.279 142.123 124.29 142.025 124.331 141.925C124.5 141.512 124.95 141.566 125.194 141.592C125.317 141.607 125.471 141.628 125.637 141.619C125.897 141.606 126.038 141.529 126.25 141.413C126.453 141.301 126.706 141.163 127.081 141.087C127.82 140.933 128.44 141.142 128.644 141.21C129.718 141.568 130.248 142.401 130.861 143.367C130.983 143.56 131.403 144.265 131.68 145.231C131.88 145.928 131.851 146.238 131.791 146.469C131.669 146.942 131.38 147.213 130.648 147.812C129.882 148.438 129.498 148.752 129.168 148.942C128.4 149.385 127.918 149.663 127.278 149.663Z" fill="#F2F2F2"/>
<path d="M95.3431 55.5526C98.0307 54.2118 99.5159 51.7409 98.6607 50.0341C97.8054 48.3272 94.9338 48.0309 92.2455 49.3726C91.1642 49.8938 90.2238 50.6659 89.5028 51.6243L78.1875 57.4489L81.0394 62.6901L91.8916 56.3916C93.0927 56.391 94.2763 56.1034 95.3431 55.5526Z" fill="#FFB6B6"/>
<path d="M31.233 191.047L36.6192 191.047L39.1814 170.312L31.2319 170.313L31.233 191.047Z" fill="#FFB6B6"/>
<path d="M49.6866 190.925C49.8543 191.207 49.9428 192.117 49.9428 192.445C49.9428 193.452 49.1244 194.269 48.1147 194.269H31.4343C30.7456 194.269 30.1872 193.712 30.1872 193.024V192.331C30.1872 192.331 29.362 190.248 31.0609 187.681C31.0609 187.681 33.1723 189.691 36.3274 186.542L37.2578 184.86L43.9926 189.776L47.7256 190.234C48.5423 190.335 49.2665 190.219 49.6866 190.925Z" fill="#2F2E41"/>
<path d="M39.6909 168.248L44.4743 170.719L56.3015 153.482L49.2418 149.835L39.6909 168.248Z" fill="#FFB6B6"/>
<path d="M56.1347 176.607C56.1538 176.935 55.8132 177.783 55.6622 178.074C55.198 178.969 54.0949 179.319 53.1983 178.856L38.3854 171.202C37.7738 170.886 37.5346 170.135 37.8513 169.524L38.1706 168.909C38.1706 168.909 38.3974 166.68 41.0889 165.18C41.0889 165.18 42.0378 167.934 46.2902 166.585L47.8914 165.519L51.6076 172.974L54.7114 175.094C55.3905 175.558 56.087 175.788 56.1347 176.607Z" fill="#2F2E41"/>
<path d="M25.7632 26.4706H39.8885L39.5802 31.0672L48.7916 60.3704L50.5187 79.9059L33.2474 82.7788L25.1875 46.5807L26.9146 29.9181L25.7632 26.4706Z" fill="#6C63FF"/>
<path d="M26.6267 30.2054L11.6582 37.6748L20.8696 68.7017L19.1424 100.303C19.1424 100.303 42.7465 107.773 41.5951 86.5135C40.4437 65.2543 40.4437 61.8069 40.4437 61.8069L26.6267 30.2054Z" fill="#2F2E41"/>
<path d="M50.5186 34.0758C50.5186 34.0758 54.2607 31.3545 55.9878 35.3766C57.7149 39.3986 68.9413 59.7959 68.9413 59.7959L86.5004 52.0392L89.379 58.3595C89.379 58.3595 74.9862 72.1492 66.3506 70.4255C57.7149 68.7018 50.8064 53.7629 50.8064 53.7629L50.5186 34.0758Z" fill="#2F2E41"/>
<path d="M20.8695 94.5575C20.8695 94.5575 20.2938 103.751 21.4452 111.22C22.5966 118.69 30.3687 182.18 30.3687 182.18L40.1558 181.605L41.0194 107.198L54.8364 129.032L42.7465 161.783L51.0943 165.517L68.6534 129.606L56.5635 88.8118L53.1093 78.4695L27.2023 81.3423L20.8695 94.5575Z" fill="#2F2E41"/>
<path d="M59.4418 96.8558C59.4418 96.8558 43.8977 101.452 40.4434 61.8069L39.6621 29.8406L54.2605 33.6528L52.5333 62.3815L59.4418 96.8558Z" fill="#2F2E41"/>
<path d="M32.9595 22.736C38.6827 22.736 43.3222 18.1055 43.3222 12.3936C43.3222 6.68174 38.6827 2.05133 32.9595 2.05133C27.2363 2.05133 22.5967 6.68174 22.5967 12.3936C22.5967 18.1055 27.2363 22.736 32.9595 22.736Z" fill="#FFB6B6"/>
<path d="M26.3388 22.4487C26.3388 22.4487 21.7331 17.2775 21.1574 14.9792C20.5817 12.6809 20.5817 6.36063 21.1574 5.78605C21.7331 5.21148 28.0659 -0.534243 30.3687 0.0403273C32.6716 0.614897 37.2363 3.48776 41.3072 3.48776C42.4586 3.48776 43.0343 9.23349 43.0343 9.23349L38.4287 9.80806C38.4287 9.80806 32.6716 6.9352 33.2473 9.80806C33.823 12.6809 29.2173 12.6809 29.2173 12.6809L29.793 14.9792L28.0659 15.5538L26.9145 13.2555C26.9145 13.2555 27.4902 18.4267 29.2173 20.7249C30.9444 23.0232 26.3388 22.4487 26.3388 22.4487Z" fill="#2F2E41"/>
<path d="M21.75 105.177C23.33 107.728 25.9294 108.982 27.5556 107.978C29.1819 106.974 29.2192 104.093 27.6383 101.542C27.0208 100.514 26.1657 99.6486 25.1445 99.0182L18.3134 88.2954L13.3398 91.602L20.6021 101.822C20.7108 103.016 21.1044 104.166 21.75 105.177Z" fill="#FFB6B6"/>
<path d="M13.961 37.6749H11.0824C11.0824 37.6749 -0.431769 63.5306 0.143938 68.7018C0.143938 68.7018 0.143938 73.2984 3.02249 76.7458C5.90104 80.1932 17.9909 99.7287 17.9909 99.7287L23.1723 95.7067L12.8096 71.5747L19.1424 46.2935L13.961 37.6749Z" fill="#2F2E41"/>
<path d="M169.68 194.259C169.68 194.443 169.531 194.592 169.347 194.592H0.332997C0.14909 194.592 0 194.443 0 194.259C0 194.076 0.149086 193.927 0.332997 193.927H169.347C169.531 193.927 169.68 194.076 169.68 194.259Z" fill="#E6E6E6"/>
<path d="M107.38 73.6383C106.02 73.6383 104.724 73.0839 103.792 72.0948C97.7892 65.7261 94.4834 57.4042 94.4834 48.6622C94.4834 41.3773 96.7479 34.4221 101.032 28.5483C101.879 27.3879 103.192 26.6596 104.637 26.5505C106.103 26.4377 107.538 26.974 108.572 28.0167L125.98 45.565C127.722 47.3211 127.9 50.1249 126.394 52.0866L111.351 71.683C110.457 72.8474 109.102 73.5577 107.633 73.6319C107.548 73.6362 107.464 73.6383 107.38 73.6383Z" fill="#6C63FF"/>
<path d="M135.115 83.873C129.748 83.873 124.598 82.6858 119.808 80.3444C118.068 79.4941 116.816 77.9266 116.373 76.0435C115.93 74.1604 116.351 72.2005 117.53 70.6659L130.065 54.3354C132.346 51.3647 132.076 47.1187 129.438 44.4588L116.605 31.5225C114.751 29.6525 113.909 27.0879 114.298 24.4862C114.689 21.871 116.253 19.6496 118.59 18.392C123.86 15.5564 129.831 14.1213 135.859 14.2503C154.026 14.6285 169.001 29.0956 169.95 47.1857C170.458 56.8504 167.074 66.025 160.423 73.0192C153.768 80.0184 144.78 83.873 135.115 83.873ZM135.128 15.4295C129.546 15.4295 130.882 20.7144 125.998 23.342C123.994 24.4203 115.809 22.4194 115.474 24.6612C115.141 26.8893 115.862 29.0859 117.451 30.6876L130.283 43.6239C133.337 46.703 133.649 51.6182 131.01 55.0571L118.474 71.3876C117.513 72.639 117.169 74.2369 117.531 75.7723C117.892 77.3073 118.913 78.5854 120.331 79.2789C124.957 81.5398 129.931 73.5867 135.115 73.5867C144.451 73.5867 153.132 78.9628 159.56 72.2024C165.985 65.4464 169.253 56.584 168.763 47.2479C167.846 29.7754 153.382 15.8023 135.835 15.4368C135.599 15.432 135.363 15.4295 135.128 15.4295Z" fill="#E6E6E6"/>
<path d="M137.402 49.2015C136.724 48.411 136.385 47.2541 136.385 45.7299C136.385 44.2204 136.724 43.0701 137.402 42.2796C138.079 41.4893 139.018 41.0941 140.216 41.0941C141.429 41.0941 142.379 41.4893 143.064 42.2796C143.749 43.0701 144.091 44.2204 144.091 45.7299C144.091 47.2541 143.749 48.411 143.064 49.2015C142.379 49.992 141.429 50.3872 140.216 50.3872C139.018 50.3872 138.079 49.992 137.402 49.2015ZM141.437 47.9731C141.694 47.5174 141.822 46.7698 141.822 45.7299C141.822 44.7188 141.69 43.9819 141.426 43.5188C141.162 43.0562 140.759 42.8245 140.216 42.8245C139.688 42.8245 139.296 43.0562 139.039 43.5188C138.782 43.9819 138.654 44.7188 138.654 45.7299C138.654 46.7553 138.782 47.4998 139.039 47.9625C139.296 48.4255 139.688 48.6568 140.216 48.6568C140.773 48.6568 141.18 48.4292 141.437 47.9731ZM141.246 54.4847L148.886 41.3075C149.941 41.3075 150.599 42.4481 150.07 43.3587L142.421 56.5187C141.375 56.5187 140.722 55.3882 141.246 54.4847ZM148.254 55.4825C147.577 54.692 147.238 53.5277 147.238 51.9895C147.238 50.48 147.577 49.3335 148.254 48.5499C148.932 47.7668 149.878 47.375 151.091 47.375C152.304 47.375 153.249 47.7668 153.927 48.5499C154.605 49.3335 154.944 50.4871 154.944 52.0109C154.944 53.5351 154.605 54.692 153.927 55.4825C153.249 56.273 152.304 56.6682 151.091 56.6682C149.878 56.6682 148.932 56.273 148.254 55.4825ZM152.29 54.2435C152.546 53.7808 152.675 53.0365 152.675 52.0109C152.675 50.9998 152.543 50.2628 152.279 49.7998C152.015 49.3371 151.619 49.1055 151.091 49.1055C150.548 49.1055 150.149 49.3371 149.892 49.7998C149.635 50.2628 149.507 50.9998 149.507 52.0109C149.507 53.0365 149.635 53.7808 149.892 54.2435C150.149 54.7065 150.548 54.9377 151.091 54.9377C151.633 54.9377 152.033 54.7065 152.29 54.2435Z" fill="black"/>
</g>
<defs>
<clipPath id="clip0_43_6055">
<rect width="170" height="195" fill="white"/>
</clipPath>
</defs>
</svg>
